<?xml version="1.0" encoding="utf-8"?>
<!-- Generator: Adobe Illustrator 18.1.1, SVG Export Plug-In . SVG Version: 6.00 Build 0)  -->
<svg version="1.1" id="Layer_1" xmlns="http://www.w3.org/2000/svg" xmlns:xlink="http://www.w3.org/1999/xlink" x="0px" y="0px"
	 width="759px" height="287px" viewBox="-20 157 759 287" enable-background="new -20 157 759 287" xml:space="preserve">
<g>
	<path fill="#FFFFFF" d="M105,205h507v239h57V174.6c0-10-7.7-17.6-17.7-17.6H67.9c-10,0-17.9,7.6-17.9,17.6V444h55V205z
		 M643.1,381.2c8,0,14.5,6.5,14.5,14.5s-6.5,14.5-14.5,14.5s-14.5-6.5-14.5-14.5S635.1,381.2,643.1,381.2z M76.9,399.3
		c-2.5,0-4.5-2-4.5-4.5s2-4.5,4.5-4.5s4.5,2,4.5,4.5S79.4,399.3,76.9,399.3z"/>
</g>
<g>
	
		<linearGradient id="SVGID_1_" gradientUnits="userSpaceOnUse" x1="58.5" y1="158" x2="58.5" y2="281" gradientTransform="matrix(1 0 0 -1 0 602)">
		<stop  offset="0.4879" style="stop-color:#D9DDE6"/>
		<stop  offset="1" style="stop-color:#FFFFFF"/>
	</linearGradient>
	<rect x="-8" y="321" fill="url(#SVGID_1_)" width="133" height="123"/>
	<path d="M-8,321h133v123h12V296.7c0-13.1-10.4-23.7-23.6-23.7H3.4C-9.7,273-20,283.6-20,296.7V444h12V321z M54.7,296h23.8
		c1.8,0,3.3,1.7,3.3,3.5s-1.5,3.5-3.3,3.5H54.7c-1.8,0-3.3-1.7-3.3-3.5C51.4,297.7,52.9,296,54.7,296z M38.9,295.5
		c2.1,0,3.8,1.7,3.8,3.8c0,2.1-1.7,3.8-3.8,3.8s-3.8-1.7-3.8-3.8C35.1,297.2,36.8,295.5,38.9,295.5z"/>
</g>
<g>
	<path fill="#FF0046" d="M29,343.2c0.4,0.3,0.8,0.5,1.3,0.5c0.7,0,0.9-0.4,0.9-1.3v-4h1.4v4.2c0,1.6-0.8,2.3-2.1,2.3
		c-0.6,0-1.1-0.2-1.4-0.4v-1.3H29z"/>
	<polygon fill="#FF0046" points="37.9,338.3 39,342.6 40.1,338.3 41.4,338.3 39.7,344.8 38.5,344.8 37.4,340.5 36.3,344.8 35,344.8 
		33.4,338.3 34.7,338.3 35.8,342.6 36.9,338.3 	"/>
	<path fill="#FF0046" d="M43.3,342.2v2.6h-0.8v-6.4h2.4c1.3,0,2.1,0.7,2.1,1.9c0,1.3-0.8,1.9-2.1,1.9H43.3z M44.8,339h-1.5v2.4h1.5
		c0.9,0,1.3-0.5,1.3-1.2C46.2,339.5,45.7,339,44.8,339"/>
	<polygon fill="#FF0046" points="48.2,338.3 49,338.3 49,344 52.3,344 52.3,344.8 48.2,344.8 	"/>
	<path fill="#FF0046" d="M55,338.3l2.5,6.4h-0.8l-0.7-1.9h-2.7l-0.7,1.9h-0.8l2.5-6.4H55z M53.6,342.1h2.1l-1-2.7L53.6,342.1z"/>
	<polygon fill="#FF0046" points="61.6,338.3 62.5,338.3 60.2,342.1 60.2,344.8 59.4,344.8 59.4,342.1 57,338.3 57.9,338.3 
		59.8,341.4 	"/>
	<polygon fill="#FF0046" points="67.3,338.3 67.3,339.1 64,339.1 64,341.1 67,341.1 67,341.8 64,341.8 64,344 67.3,344 67.3,344.8 
		63.2,344.8 63.2,338.3 	"/>
	<path fill="#FF0046" d="M69.3,342v2.7h-0.8v-6.4h2.4c1.3,0,2.1,0.6,2.1,1.9c0,1.1-0.6,1.7-1.6,1.8l1.9,2.8h-0.9l-1.8-2.7h-1.3V342z
		 M69.3,341.3h1.5c0.8,0,1.3-0.4,1.3-1.1s-0.5-1.1-1.3-1.1h-1.5V341.3z"/>
	<path fill="#FF0046" d="M7,341.1c-0.1,0.2-0.1,0.2-0.2,0l-0.1-0.3c0,0-0.1-0.5-0.4-1.1c-0.1-0.2-0.1-0.4-0.3-0.5
		c-0.2-0.2-0.5-0.3-0.7-0.2s-0.4,0.3-0.4,0.6c0,0.2,0,0.4,0.1,0.7c0.1,0.7,0.6,3.2,0.9,3.8s0.9,0.9,1.5,0.5c0.5-0.3,0.8-1,1-1.5
		c0.3-0.7,1.7-4.5,1.7-4.5c0.1-0.4,0.2-0.4,0.2,0c0,0-0.1,3.8-0.1,5.5c0,0.6,0,1.8,0.2,2.4c0.1,0.4,0.3,0.8,0.7,1.1
		c0.3,0.3,0.8,0.4,1.2,0.3c0.2,0,0.4-0.1,0.6-0.2c0.3-0.1,0.5-0.4,0.7-0.6c0.4-0.5,0.7-1.1,1-1.7c0.7-1.3,2.4-5.5,2.4-5.5
		c0.2-0.4,0.3-0.3,0.3,0.1c0,0-0.2,6.9-0.2,9.6c0,0.6,0.1,1.3,0.4,1.9c0.2,0.6,0.6,1.1,1.2,1.3c0.6,0.3,1.3,0.2,1.9-0.1
		c0.4-0.3,0.8-0.7,1.1-1.1c0.4-0.6,0.6-1.3,0.9-1.9c0.5-1.4,1-2.8,1.4-4.2c0.4-1.4,4.1-14.6,4.4-15.8c0-0.1,0.1-0.3,0-0.4
		c0-0.3-0.2-0.5-0.4-0.6c-0.4-0.2-0.9,0-1.1,0.4c-0.2,0.4-5.3,12.7-5.3,12.7c-0.2,0.4-0.3,0.4-0.3-0.1c0,0,0-4.3,0-7.8
		c0-1.9-0.9-3-2.3-3.2c-0.6-0.1-1.2,0.1-1.8,0.4c-0.5,0.4-0.9,0.9-1.2,1.5c-0.4,0.8-2.9,8-2.9,8c-0.1,0.4-0.2,0.4-0.3,0
		c0,0-0.1-3.1-0.1-3.8c-0.1-1.1-0.4-3-1.8-3.1c-1.4-0.1-2,1.6-2.3,2.6c-0.2,0.7-1.4,4.4-1.4,4.4L7,341.1z"/>
</g>
<text transform="matrix(1 0 0 1 28.2615 366.5)" font-family="'Karbon-Regular'" font-size="25">DEMO</text>
<path fill="#FFFFFF" stroke="#FF0046" stroke-miterlimit="10" d="M108,407H7.9c-1.6,0-3-1.4-3-3v-21.5c0-1.6,1.4-3,3-3H108
	c1.6,0,3,1.4,3,3V404C111,405.6,109.6,407,108,407z"/>
<text transform="matrix(1 0 0 1 13.7615 397)" fill="#FF0046" font-family="'Karbon-Medium'" font-size="12">SKINS</text>
<g id="_x34_f93ebb4-43bd-48cc-bb19-e11a4e98b89d.psd">
	<g id="icon-arrow-right">
		<g>
			<path fill="#FF0046" d="M100.8,392.6l-3.5-3.5c-0.4-0.4-1-0.4-1.4,0s-0.4,1,0,1.4l2.8,2.8l-2.8,2.8c-0.4,0.4-0.4,1,0,1.4
				s1,0.4,1.4,0l3.5-3.5C101.2,393.7,101.2,393,100.8,392.6z"/>
		</g>
	</g>
</g>
<path fill="#FFFFFF" stroke="#FF0046" stroke-miterlimit="10" d="M108,439H7.9c-1.6,0-3-1.4-3-3v-21.5c0-1.6,1.4-3,3-3H108
	c1.6,0,3,1.4,3,3V436C111,437.6,109.6,439,108,439z"/>
<text transform="matrix(1 0 0 1 13.7615 429)" fill="#FF0046" font-family="'Karbon-Medium'" font-size="12">CAPTIONS</text>
<g id="_x34_f93ebb4-43bd-48cc-bb19-e11a4e98b89d.psd_1_">
	<g id="icon-arrow-right_2_">
		<g>
			<path fill="#FF0046" d="M100.8,424.6l-3.5-3.5c-0.4-0.4-1-0.4-1.4,0s-0.4,1,0,1.4l2.8,2.8l-2.8,2.8c-0.4,0.4-0.4,1,0,1.4
				s1,0.4,1.4,0l3.5-3.5C101.2,425.7,101.2,425,100.8,424.6z"/>
		</g>
	</g>
</g>
</svg>
