<?xml version="1.0" encoding="utf-8"?>
<!-- Generator: Adobe Illustrator 18.1.1, SVG Export Plug-In . SVG Version: 6.00 Build 0)  -->
<svg version="1.1" id="Layer_1" xmlns="http://www.w3.org/2000/svg" xmlns:xlink="http://www.w3.org/1999/xlink" x="0px" y="0px"
	 width="140px" height="94.8px" viewBox="0 0 140 94.8" enable-background="new 0 0 140 94.8" xml:space="preserve">
<path fill="#D9DDE6" d="M136,94.8H4c-2.2,0-4-1.8-4-4V4c0-2.2,1.8-4,4-4h132c2.2,0,4,1.8,4,4v86.8C140,92.9,138.2,94.8,136,94.8z"/>
<path fill="#2A2A2A" d="M0,19.8V4c0-2.2,1.8-4,4-4h132c2.2,0,4,1.8,4,4v15.8H0z"/>
<path fill="#FFFFFF" d="M128.8,47.5H11.2c-2.2,0-4-1.8-4-4V31c0-2.2,1.8-4,4-4h117.5c2.2,0,4,1.8,4,4v12.5
	C132.8,45.7,130.9,47.5,128.8,47.5z"/>
<path fill="#FFFFFF" d="M76,86.8H11.2c-2.2,0-4-1.8-4-4V58.2c0-2.2,1.8-4,4-4H76c2.2,0,4,1.8,4,4v24.5C80,84.9,78.2,86.8,76,86.8z"
	/>
<path fill="#FFFFFF" d="M128.8,86.8H91c-2.2,0-4-1.8-4-4V58.2c0-2.2,1.8-4,4-4h37.8c2.2,0,4,1.8,4,4v24.5
	C132.8,84.9,130.9,86.8,128.8,86.8z"/>
<path fill="#FF0046" d="M116.7,10c0,0.1-0.1,0.1-0.1,0l-0.1-0.2c0,0-0.1-0.3-0.2-0.6c0-0.1-0.1-0.2-0.1-0.3
	c-0.1-0.1-0.3-0.2-0.4-0.1c-0.1,0-0.2,0.2-0.2,0.3c0,0.1,0,0.2,0,0.4c0.1,0.4,0.3,1.8,0.5,2.1c0.2,0.3,0.5,0.5,0.8,0.3
	c0.3-0.2,0.4-0.5,0.6-0.8c0.2-0.4,0.9-2.5,0.9-2.5c0.1-0.2,0.1-0.2,0.1,0c0,0,0,2.1,0,3c0,0.3,0,1,0.1,1.3c0.1,0.2,0.2,0.4,0.4,0.6
	c0.2,0.1,0.4,0.2,0.6,0.2c0.1,0,0.2-0.1,0.3-0.1c0.1-0.1,0.3-0.2,0.4-0.3c0.2-0.3,0.4-0.6,0.6-1c0.4-0.7,1.3-3,1.3-3
	c0.1-0.2,0.2-0.2,0.1,0c0,0-0.1,3.8-0.1,5.2c0,0.4,0.1,0.7,0.2,1.1c0.1,0.3,0.3,0.6,0.7,0.7c0.3,0.2,0.7,0.1,1-0.1
	c0.2-0.1,0.4-0.4,0.6-0.6c0.2-0.3,0.3-0.7,0.5-1c0.3-0.7,0.5-1.5,0.8-2.3c0.2-0.8,2.3-8,2.4-8.6c0-0.1,0-0.1,0-0.2
	c0-0.1-0.1-0.3-0.2-0.3c-0.2-0.1-0.5,0-0.6,0.2c-0.1,0.2-2.9,6.9-2.9,6.9c-0.1,0.2-0.2,0.2-0.2,0c0,0,0-2.3,0-4.3
	c0-1-0.5-1.6-1.2-1.7c-0.3-0.1-0.7,0-1,0.2c-0.3,0.2-0.5,0.5-0.7,0.8c-0.2,0.4-1.6,4.4-1.6,4.4c-0.1,0.2-0.1,0.2-0.1,0
	c0,0,0-1.7-0.1-2.1c-0.1-0.6-0.2-1.6-1-1.7c-0.7,0-1.1,0.9-1.3,1.4c-0.1,0.4-0.8,2.4-0.8,2.4L116.7,10z"/>
<circle fill="#FFFFFF" cx="9.8" cy="10.2" r="3"/>
<circle fill="#D9DDE6" cx="19.8" cy="10.2" r="3"/>
<path fill="#D9DDE6" d="M27.4,34H13.1c-0.5,0-1-0.5-1-1l0,0c0-0.5,0.4-1,1-1h14.3c0.5,0,1,0.5,1,1l0,0C28.4,33.5,28,34,27.4,34z"/>
<path fill="#D9DDE6" d="M81.4,40H13.1c-0.5,0-1-0.5-1-1l0,0c0-0.5,0.4-1,1-1h68.3c0.6,0,1,0.5,1,1l0,0C82.4,39.5,82,40,81.4,40z"/>
<path fill="#D9DDE6" d="M107.4,61.2H93.1c-0.6,0-1-0.4-1-1v0c0-0.5,0.4-1,1-1h14.3c0.6,0,1,0.5,1,1v0
	C108.4,60.7,108,61.2,107.4,61.2z"/>
<path fill="#D9DDE6" d="M126.4,67.2H93.1c-0.6,0-1-0.4-1-1l0,0c0-0.5,0.4-1,1-1h33.3c0.6,0,1,0.5,1,1l0,0
	C127.4,66.7,127,67.2,126.4,67.2z"/>
<path fill="#D9DDE6" d="M126.4,73.2H93.1c-0.6,0-1-0.4-1-1l0,0c0-0.5,0.4-1,1-1h33.3c0.6,0,1,0.5,1,1l0,0
	C127.4,72.7,127,73.2,126.4,73.2z"/>
<path fill="#D9DDE6" d="M39.4,61.2H13.1c-0.5,0-1-0.4-1-1v0c0-0.5,0.4-1,1-1h26.3c0.5,0,1,0.5,1,1v0C40.4,60.7,40,61.2,39.4,61.2z"
	/>
<path fill="#D9DDE6" d="M39.4,73.2H13.1c-0.5,0-1-0.4-1-1l0,0c0-0.5,0.4-1,1-1h26.3c0.5,0,1,0.5,1,1l0,0
	C40.4,72.7,40,73.2,39.4,73.2z"/>
<path fill="#D9DDE6" d="M55.4,67.2H13.1c-0.5,0-1-0.4-1-1l0,0c0-0.5,0.4-1,1-1h42.3c0.5,0,1,0.5,1,1l0,0
	C56.4,66.7,56,67.2,55.4,67.2z"/>
</svg>
