<?xml version="1.0" encoding="utf-8"?>
<!-- Generator: Adobe Illustrator 18.1.1, SVG Export Plug-In . SVG Version: 6.00 Build 0)  -->
<svg version="1.1" id="Layer_1" xmlns="http://www.w3.org/2000/svg" xmlns:xlink="http://www.w3.org/1999/xlink" x="0px" y="0px"
	 width="35px" height="35px" viewBox="0 0 35 35" enable-background="new 0 0 35 35" xml:space="preserve">
<path fill="#4AA3EA" d="M33,35H2c-1.1,0-2-0.9-2-2V2c0-1.1,0.9-2,2-2h31c1.1,0,2,0.9,2,2v31C35,34.1,34.1,35,33,35z"/>
<path fill="#FFFFFF" d="M29,11c-0.8,0.3-1.6,0.6-2.5,0.7c0.9-0.5,1.6-1.4,1.9-2.4c-0.8,0.5-1.8,0.8-2.7,1C24.9,9.5,23.8,9,22.5,9
	c-2.4,0-4.3,1.9-4.3,4.3c0,0.3,0,0.7,0.1,1c-3.6-0.2-6.8-1.9-8.9-4.5c-0.4,0.6-0.6,1.4-0.6,2.2c0,1.5,0.8,2.8,1.9,3.6
	c-0.7,0-1.4-0.2-2-0.5c0,0,0,0,0,0.1c0,2.1,1.5,3.8,3.5,4.2c-0.4,0.1-0.7,0.2-1.1,0.2c-0.3,0-0.5,0-0.8-0.1c0.5,1.7,2.1,2.9,4,3
	c-1.5,1.2-3.3,1.8-5.4,1.8c-0.3,0-0.7,0-1-0.1c1.9,1.2,4.2,1.9,6.6,1.9c7.9,0,12.3-6.5,12.3-12.2c0-0.2,0-0.4,0-0.6
	C27.7,12.6,28.4,11.9,29,11z"/>
</svg>
