<?xml version="1.0" encoding="utf-8"?>
<!-- Generator: Adobe Illustrator 18.1.1, SVG Export Plug-In . SVG Version: 6.00 Build 0)  -->
<svg version="1.1" id="Layer_1" xmlns="http://www.w3.org/2000/svg" xmlns:xlink="http://www.w3.org/1999/xlink" x="0px" y="0px"
	 width="100.3px" height="97.8px" viewBox="0 0 100.3 97.8" enable-background="new 0 0 100.3 97.8" xml:space="preserve">
<path fill="#FF0046" d="M100.2,78.9c0,1.7-1.3,3.7-2.7,4.6L73.9,97.1c-1.4,0.8-3.8,0.8-5.3,0L45.1,83.5c-1.4-0.8-2.6-2.9-2.6-4.6
	V51.7c0-1.7,1.1-3.7,2.6-4.6l23.6-13.7c1.4-0.8,3.8-0.8,5.2,0l23.7,13.7c1.4,0.8,2.7,2.9,2.7,4.6L100.2,78.9L100.2,78.9z"/>
<path fill="#2A2A2A" d="M59.2,27.9c0,1.7-1.1,3.7-2.5,4.5l-13,7.6c-1.4,0.8-3.8,0.8-5.2,0l-12.8-7.6c-1.4-0.8-2.3-2.9-2.3-4.5V12.8
	c0-1.7,0.9-3.7,2.3-4.5l12.9-7.6c1.4-0.8,3.7-0.8,5.2,0l13,7.6c1.4,0.8,2.5,2.9,2.5,4.5V27.9z"/>
<path fill="#D9DDE6" d="M35.9,65.6c0,1.7-1.1,3.7-2.5,4.5l-13,7.6c-1.4,0.8-3.8,0.8-5.2,0L2.3,70.1C0.9,69.3,0,67.3,0,65.6V50.4
	c0-1.7,0.9-3.7,2.3-4.5l12.9-7.6c1.4-0.8,3.7-0.8,5.2,0l13,7.6c1.4,0.8,2.5,2.9,2.5,4.5V65.6z"/>
<g>
	<path fill="#FFFFFF" d="M87.1,57.4c-1.4,0-2.6,1.2-2.6,2.6v10.4c0,1.5,1.2,2.6,2.6,2.6c1.4,0,2.6-1.2,2.6-2.6V60.1
		C89.7,58.6,88.5,57.4,87.1,57.4z M55.4,57.4c-1.4,0-2.6,1.2-2.6,2.6v10.4c0,1.5,1.2,2.6,2.6,2.6s2.6-1.2,2.6-2.6V60.1
		C58,58.6,56.8,57.4,55.4,57.4z"/>
	<path fill="#FFFFFF" d="M59.6,57.5v19.1c0,1.1,0.9,2.1,2.1,2.1H64v5.8c0,1.5,1.2,2.6,2.6,2.6c1.4,0,2.6-1.2,2.6-2.6v-5.8h4.1v5.8
		c0,1.5,1.2,2.6,2.6,2.6c1.4,0,2.6-1.2,2.6-2.6v-5.8H81c1.1,0,2.1-0.9,2.1-2.1V57.5H59.6z"/>
	<path fill="#FFFFFF" d="M76.8,47.7l2.2-3.1c0.1-0.2,0.1-0.4-0.1-0.5c-0.2-0.1-0.4-0.1-0.5,0.1l-2.2,3.2c-1.5-0.6-3.1-0.9-4.9-0.9
		c-1.7,0-3.4,0.3-4.9,0.9l-2.2-3.2c-0.1-0.2-0.4-0.3-0.5-0.1c-0.2,0.1-0.2,0.4-0.1,0.5l2.2,3.1c-3.4,1.6-5.8,4.6-6.1,8.2H83
		C82.6,52.3,80.2,49.3,76.8,47.7z M66.3,52.6c-0.7,0-1.3-0.6-1.3-1.3c0-0.7,0.6-1.3,1.3-1.3c0.7,0,1.3,0.6,1.3,1.3
		C67.6,52,67,52.6,66.3,52.6z M76.3,52.6c-0.7,0-1.3-0.6-1.3-1.3c0-0.7,0.6-1.3,1.3-1.3c0.7,0,1.3,0.6,1.3,1.3
		C77.6,52,77.1,52.6,76.3,52.6z"/>
</g>
<path fill="#FFFFFF" d="M29.9,24.2l9.7-6.5c-0.3-2.4,0.8-4.9,3-6.4c2.4-1.6,5.5-1.5,7.8,0.2L46.7,14l2.5,3.7l3.7-2.4
	c0.7,2.7-0.3,5.6-2.8,7.3c-2.2,1.5-4.9,1.5-7,0.3l-9.7,6.5C32,30.4,30,30,29,28.6l0,0C28.1,27.2,28.5,25.2,29.9,24.2L29.9,24.2z
	 M31.5,25.5c-0.6,0.4-0.7,1.2-0.4,1.7c0.4,0.6,1.2,0.7,1.7,0.3c0.6-0.4,0.7-1.2,0.3-1.7C32.8,25.2,32.1,25.1,31.5,25.5z"/>
<path fill="#FFFFFF" d="M13.6,59.6c-0.9-2.4,0.4-5.2,2.8-6s5.2,0.4,6,2.8c0.9,2.4-0.4,5.2-2.8,6C17.2,63.3,14.5,62.1,13.6,59.6z
	 M9.3,54c-0.7,1.3-2.3,1.7-2.8,1.8C6.4,56,6.3,56,6.3,56.2l-0.1,2.7c0,0.1,0.1,0.3,0.2,0.3C8,59.6,8.8,60.7,9,61.1
	C9,61.2,9,61.3,9,61.4c0.3,1.4-0.4,2.7-0.7,3.2c-0.1,0.1-0.1,0.3,0.1,0.4l1.8,2c0.1,0.1,0.3,0.1,0.4,0.1c1.3-0.9,2.6-0.6,2.9-0.4
	c0.1,0,0.1,0.1,0.2,0.1c1.3,0.8,1.8,2.4,1.9,2.9c0.1,0.1,0.1,0.2,0.3,0.2l2.7,0.1c0.1,0,0.3-0.1,0.3-0.2c0.4-1.6,1.7-2.4,2.1-2.6
	c0.1,0,0.1-0.1,0.1-0.1c1.4-0.4,2.8,0.4,3.3,0.7c0.1,0.1,0.3,0.1,0.4-0.1l2-1.8c0.1-0.1,0.1-0.3,0.1-0.4c-0.9-1.3-0.5-2.7-0.4-3.2
	c0.1-0.1,0.1-0.2,0.1-0.4c0.7-1.2,2.1-1.6,2.6-1.8c0.1-0.1,0.2-0.1,0.2-0.3l0.1-2.7c0-0.1-0.1-0.3-0.2-0.3c-1.5-0.3-2.1-1.3-2.4-1.7
	c-0.1-0.1-0.1-0.3-0.1-0.4c-0.3-1.4,0.4-2.7,0.7-3.2c0.1-0.1,0.1-0.3-0.1-0.4l-1.8-2c-0.1-0.1-0.3-0.1-0.4-0.1
	c-1.6,1.1-3.6,0.3-3.6,0.3c-1.3-0.7-1.4-2.1-1.5-2.6c0-0.1-0.1-0.2-0.3-0.2L17,46.2c-0.1,0-0.3,0.1-0.3,0.2
	c-0.4,1.9-1.8,2.6-1.8,2.6l0,0c-1.4,0.5-2.7-0.3-3.2-0.5c-0.1-0.1-0.3-0.1-0.4,0l-2.1,1.8c-0.1,0.1-0.1,0.3-0.1,0.4
	C10.2,52.4,9.3,54,9.3,54L9.3,54z"/>
</svg>
