<?xml version="1.0" encoding="utf-8"?>
<!-- Generator: Adobe Illustrator 18.1.1, SVG Export Plug-In . SVG Version: 6.00 Build 0)  -->
<svg version="1.1" id="Layer_1" xmlns="http://www.w3.org/2000/svg" xmlns:xlink="http://www.w3.org/1999/xlink" x="0px" y="0px"
	 width="51px" height="51px" viewBox="0 0 51 51" enable-background="new 0 0 51 51" xml:space="preserve">
<path fill="#309DEF" d="M41,0h-1h-9h-1h-9h-1h-9h-1H0v10v1v9v1v9v1v9v1v10h10h1h9h1h9h1h9h1h10V41v-1v-9v-1v-9v-1v-9v-1V0H41z M31,1
	h9v9h-9V1z M40,20h-9v-9h9V20z M40,30h-9v-9h9V30z M40,40h-9v-9h9V40z M11,31h9v9h-9V31z M11,21h9v9h-9V21z M11,11h9v9h-9V11z
	 M30,20h-9v-9h9V20z M30,30h-9v-9h9V30z M21,31h9v9h-9V31z M21,1h9v9h-9V1z M11,1h9v9h-9V1z M1,1h9v9H1V1z M1,11h9v9H1V11z M1,21h9
	v9H1V21z M1,31h9v9H1V31z M10,50H1v-9h9V50z M20,50h-9v-9h9V50z M30,50h-9v-9h9V50z M40,50h-9v-9h9V50z M50,50h-9v-9h9V50z M50,40
	h-9v-9h9V40z M50,30h-9v-9h9V30z M50,20h-9v-9h9V20z M41,10V1h9v9H41z"/>
</svg>
