<?xml version="1.0" encoding="utf-8"?>
<!-- Generator: Adobe Illustrator 18.1.1, SVG Export Plug-In . SVG Version: 6.00 Build 0)  -->
<svg version="1.1" id="Layer_1" xmlns="http://www.w3.org/2000/svg" xmlns:xlink="http://www.w3.org/1999/xlink" x="0px" y="0px"
	 width="101.3px" height="36px" viewBox="0 0 101.3 36" enable-background="new 0 0 101.3 36" xml:space="preserve">
<g>
	<path fill="#FFFFFF" d="M35.6,21.5c0.6,0.4,1.1,0.7,1.9,0.7c1,0,1.3-0.6,1.3-1.9v-6h2v6.2c0,2.4-1.1,3.5-3.2,3.5
		c-0.8,0-1.6-0.3-2-0.5V21.5z"/>
	<polygon fill="#FFFFFF" points="49,14.3 50.6,20.7 52.2,14.3 54.1,14.3 51.6,23.9 49.8,23.9 48.1,17.6 46.5,23.9 44.6,23.9 
		42.2,14.3 44.2,14.3 45.7,20.7 47.4,14.3 	"/>
	<path fill="#FFFFFF" d="M56.9,20v3.8h-1.2v-9.5h3.5c1.9,0,3.2,1,3.2,2.9c0,1.9-1.3,2.9-3.2,2.9H56.9z M59.2,15.4h-2.3v3.6h2.3
		c1.3,0,2-0.7,2-1.8C61.2,16.1,60.5,15.4,59.2,15.4"/>
	<polygon fill="#FFFFFF" points="64.1,14.3 65.3,14.3 65.3,22.7 70.2,22.7 70.2,23.9 64.1,23.9 	"/>
	<path fill="#FFFFFF" d="M74.3,14.3l3.7,9.5h-1.2L75.7,21h-3.9l-1.1,2.9h-1.2l3.7-9.5H74.3z M72.2,19.9h3.1l-1.6-4.1L72.2,19.9z"/>
	<polygon fill="#FFFFFF" points="84.1,14.3 85.4,14.3 81.9,19.9 81.9,23.9 80.7,23.9 80.7,19.9 77.3,14.3 78.6,14.3 81.4,18.8 	"/>
	<polygon fill="#FFFFFF" points="92.5,14.3 92.5,15.4 87.6,15.4 87.6,18.4 92.1,18.4 92.1,19.5 87.6,19.5 87.6,22.7 92.5,22.7 
		92.5,23.9 86.4,23.9 86.4,14.3 	"/>
	<path fill="#FFFFFF" d="M95.5,19.8v4h-1.2v-9.5h3.5c1.9,0,3.2,1,3.2,2.8c0,1.6-0.9,2.5-2.4,2.7l2.8,4.1h-1.4l-2.7-4H95.5z
		 M95.5,18.8h2.2c1.3,0,2-0.6,2-1.7c0-1.1-0.7-1.7-2-1.7h-2.2V18.8z"/>
	<path fill="#FFFFFF" d="M3.1,18.5c-0.1,0.3-0.2,0.3-0.3,0l-0.1-0.5c0,0-0.2-0.7-0.5-1.6C2.1,16,2,15.7,1.8,15.5
		c-0.3-0.3-0.7-0.4-1.1-0.3c-0.4,0.1-0.6,0.5-0.7,0.8c0,0.3,0,0.7,0.1,1c0.1,1,0.8,4.8,1.3,5.7c0.4,0.8,1.4,1.3,2.2,0.8
		c0.8-0.4,1.2-1.4,1.5-2.2c0.4-1,2.5-6.7,2.5-6.7C7.8,14,8,14,7.9,14.6c0,0-0.1,5.6-0.1,8.2c0,1,0.1,2.7,0.3,3.6
		c0.2,0.6,0.5,1.2,1,1.6c0.5,0.4,1.1,0.5,1.7,0.5c0.2,0,0.6-0.1,0.9-0.3c0.4-0.2,0.7-0.5,1-0.9c0.6-0.8,1.1-1.7,1.5-2.6
		c1-2,3.6-8.1,3.6-8.1c0.2-0.6,0.4-0.5,0.4,0.1c0,0-0.3,10.3-0.3,14.2c0,1,0.2,2,0.5,2.9c0.3,0.9,0.9,1.6,1.8,2
		c0.9,0.4,2,0.3,2.8-0.2c0.7-0.4,1.2-1,1.6-1.6c0.5-0.9,0.9-1.9,1.3-2.8c0.8-2,1.4-4.1,2.1-6.2c0.6-2.1,6.1-21.7,6.5-23.4
		c0-0.2,0.1-0.4,0-0.6c-0.1-0.4-0.3-0.8-0.6-0.9c-0.6-0.3-1.3,0-1.6,0.6c-0.3,0.6-7.8,18.8-7.8,18.8c-0.2,0.6-0.4,0.5-0.4-0.1
		c0,0,0-6.3,0-11.6c0-2.8-1.4-4.4-3.3-4.8C19.9,3,19,3.2,18.2,3.7c-0.8,0.5-1.4,1.3-1.8,2.2c-0.6,1.2-4.3,11.9-4.3,11.9
		c-0.2,0.6-0.4,0.5-0.4-0.1c0,0-0.1-4.6-0.2-5.7c-0.2-1.7-0.5-4.4-2.7-4.6c-2-0.1-2.9,2.4-3.5,3.9c-0.3,1-2,6.6-2,6.6L3.1,18.5z"/>
</g>
</svg>
