<?xml version="1.0" encoding="utf-8"?>
<!-- Generator: Adobe Illustrator 18.1.1, SVG Export Plug-In . SVG Version: 6.00 Build 0)  -->
<svg version="1.1" id="Layer_1" xmlns="http://www.w3.org/2000/svg" xmlns:xlink="http://www.w3.org/1999/xlink" x="0px" y="0px"
	 width="140px" height="97.7px" viewBox="0 0 140 97.7" enable-background="new 0 0 140 97.7" xml:space="preserve">
<path fill="#1C1C1C" d="M136,79H4c-2.2,0-4-1.8-4-4V4c0-2.2,1.8-4,4-4h132c2.2,0,4,1.8,4,4v71C140,77.2,138.2,79,136,79z"/>
<path fill="#2A2A2A" d="M140,75V4c0-2.2-1.8-3.8-4-3.8H29.6L140,75.4c0,0,0-0.1,0-0.1l0,0C140,75.2,140,75.1,140,75z"/>
<path fill="#1C1C1C" d="M140,75.4L140,75.4c0-0.1,0-0.3,0-0.4C140,75.1,140,75.2,140,75.4z"/>
<g>
	<polygon fill="#FF0046" points="41.5,28.6 59.7,39.1 41.5,49.6 	"/>
	<g>
		<path fill="#FFFFFF" d="M71.7,26.8v-7.7h26.8v7.7L82.7,59.8h-8.8l15.5-33H71.7z"/>
	</g>
</g>
<path fill="#D9DDE6" d="M138,95.7H2c-1.1,0-2-0.9-2-2v0c0-1.1,0.9-2,2-2h136c1.1,0,2,0.9,2,2v0C140,94.8,139.1,95.7,138,95.7z"/>
<path fill="#FF0046" d="M91,95.7H2c-1.1,0-2-0.9-2-2v0c0-1.1,0.9-2,2-2h89c1.1,0,2,0.9,2,2v0C93,94.8,92.1,95.7,91,95.7z"/>
<circle fill="#FF0046" cx="92" cy="93.7" r="4"/>
</svg>
